<?xml version="1.0" standalone="no"?><!DOCTYPE svg PUBLIC "-//W3C//DTD SVG 1.1//EN" "http://www.w3.org/Graphics/SVG/1.1/DTD/svg11.dtd"><svg t="1533133146039" class="icon" style="" viewBox="0 0 1024 1024" version="1.1" xmlns="http://www.w3.org/2000/svg" p-id="3919" xmlns:xlink="http://www.w3.org/1999/xlink" width="200" height="200"><defs><style type="text/css"></style></defs><path d="M398 64H136c-39.8 0-72 32.2-72 72v262c0 39.8 32.2 72 72 72h262c39.8 0 72-32.2 72-72V136c0-39.8-32.2-72-72-72z m490 0H626c-39.8 0-72 32.2-72 72v262c0 39.8 32.2 72 72 72h262c39.8 0 72-32.2 72-72V136c0-39.8-32.2-72-72-72zM398 554H136c-39.8 0-72 32.2-72 72v262c0 39.8 32.2 72 72 72h262c39.8 0 72-32.2 72-72V626c0-39.8-32.2-72-72-72z m490 0H626c-39.8 0-72 32.2-72 72v262c0 39.8 32.2 72 72 72h262c39.8 0 72-32.2 72-72V626c0-39.8-32.2-72-72-72z" p-id="3920"></path></svg>