<?xml version="1.0" standalone="no"?><!DOCTYPE svg PUBLIC "-//W3C//DTD SVG 1.1//EN" "http://www.w3.org/Graphics/SVG/1.1/DTD/svg11.dtd"><svg t="1534921483434" class="icon" style="" viewBox="0 0 1024 1024" version="1.1" xmlns="http://www.w3.org/2000/svg" p-id="5038" xmlns:xlink="http://www.w3.org/1999/xlink" width="200" height="200"><defs><style type="text/css"></style></defs><path d="M65.071018 511.997953c0 246.829642 200.095247 446.931029 446.927959 446.931029s446.927959-200.101387 446.927959-446.931029S758.832711 65.069995 512 65.069995 65.071018 265.168312 65.071018 511.997953zM288.535509 511.997953c0-15.427364 12.505825-27.933189 27.933189-27.933189l295.693536 0L497.04131 368.944863c-10.910491-10.907421-10.910491-28.597315 0-39.505759 10.907421-10.907421 28.595268-10.907421 39.502689 0l158.013827 158.016897c6.695492 6.698562 8.773827 15.871479 7.248078 24.538883 1.524726 8.673543-0.552585 17.84646-7.248078 24.545022L536.545022 694.557826c-10.907421 10.907421-28.595268 10.907421-39.502689 0-10.910491-10.910491-10.910491-28.598338 0-39.505759l115.119901-115.119901L316.468698 539.932166C301.041334 539.931143 288.535509 527.423271 288.535509 511.997953z" p-id="5039"></path></svg>