<?xml version="1.0" standalone="no"?><!DOCTYPE svg PUBLIC "-//W3C//DTD SVG 1.1//EN" "http://www.w3.org/Graphics/SVG/1.1/DTD/svg11.dtd"><svg t="1534921587389" class="icon" style="" viewBox="0 0 1024 1024" version="1.1" xmlns="http://www.w3.org/2000/svg" p-id="1606" xmlns:xlink="http://www.w3.org/1999/xlink" width="200" height="200"><defs><style type="text/css"></style></defs><path d="M512 65.069995c-246.832711 0-446.927959 200.098317-446.927959 446.927959s200.095247 446.931029 446.927959 446.931029 446.927959-200.101387 446.927959-446.931029S758.832711 65.069995 512 65.069995zM707.531302 539.931143 411.837766 539.931143 526.957667 655.052067c10.910491 10.907421 10.910491 28.595268 0 39.505759-10.907421 10.907421-28.595268 10.907421-39.502689 0L329.441151 536.539906c-6.695492-6.698562-8.773827-15.871479-7.248078-24.545022-1.524726-8.667404 0.552585-17.841344 7.248078-24.538883l158.013827-158.016897c10.907421-10.907421 28.595268-10.907421 39.502689 0 10.910491 10.907421 10.910491 28.597315 0 39.505759L411.837766 484.065787l295.693536 0c15.427364 0 27.933189 12.505825 27.933189 27.933189C735.463468 527.423271 722.958666 539.931143 707.531302 539.931143z" p-id="1607"></path></svg>