<?xml version="1.0" standalone="no"?><!DOCTYPE svg PUBLIC "-//W3C//DTD SVG 1.1//EN" "http://www.w3.org/Graphics/SVG/1.1/DTD/svg11.dtd"><svg t="1533116695634" class="icon" style="" viewBox="0 0 1024 1024" version="1.1" xmlns="http://www.w3.org/2000/svg" p-id="3139" xmlns:xlink="http://www.w3.org/1999/xlink" width="200" height="200"><defs><style type="text/css"></style></defs><path d="M822.5 63.5h-618c-39.8 0-72 32.2-72 72v753.1c0 39.8 32.2 72 72 72h618.1c39.8 0 72-32.2 72-72V135.5c-0.1-39.8-32.4-72-72.1-72z m-331.9 72v209.9l-8.7-8.7-33.3-33.3c-9.5-9.5-25-9.6-34.6-0.1l-44.4 43.9V135.5h121z m-193 0v277.3c0 19.7 15.9 35.6 35.6 35.6 23.3 0 45.7-9.2 62.3-25.6l35.5-35.2 34.9 34.9c15.9 15.9 37.3 25.2 59.8 25.9h1.4c19.7 0 35.6-15.9 35.6-35.6V135.5h259.9v624.3h-618V135.5h93z m-93.1 753.1v-56.8h618v56.8h-618z" p-id="3140"></path></svg>