<?xml version="1.0" standalone="no"?><!DOCTYPE svg PUBLIC "-//W3C//DTD SVG 1.1//EN" "http://www.w3.org/Graphics/SVG/1.1/DTD/svg11.dtd"><svg t="1536430921949" class="icon" style="" viewBox="0 0 1024 1024" version="1.1" xmlns="http://www.w3.org/2000/svg" p-id="6676" xmlns:xlink="http://www.w3.org/1999/xlink" width="200" height="200"><defs><style type="text/css"></style></defs><path d="M982.448035 714.036397a191.228893 191.228893 0 0 0-111.230192-69.950863 364.794072 364.794072 0 0 0 0-264.187707 191.228893 191.228893 0 0 0 111.230192-69.950864 511.99168 511.99168 0 0 1 0 404.089434zM831.98648 319.9948a127.99792 127.99792 0 1 1 127.99792-127.99792 127.99792 127.99792 0 0 1-127.99792 127.99792z m-187.964945-167.229282a364.28208 364.28208 0 0 0-264.059709 0A191.612886 191.612886 0 0 0 309.946963 41.535325a511.99168 511.99168 0 0 1 404.089434 0 191.612886 191.612886 0 0 0-70.014862 111.230193zM191.99688 319.9948a127.99792 127.99792 0 1 1 127.99792-127.99792 127.99792 127.99792 0 0 1-127.99792 127.99792z m-39.231362 59.903027a364.794072 364.794072 0 0 0 0 264.187707 191.228893 191.228893 0 0 0-111.230193 69.950863 511.99168 511.99168 0 0 1 0-404.089434 191.228893 191.228893 0 0 0 111.230193 69.950864zM191.99688 703.98856a127.99792 127.99792 0 1 1-127.99792 127.99792 127.99792 127.99792 0 0 1 127.99792-127.99792z m319.9948 0a191.99688 191.99688 0 1 1 191.99688-191.99688 191.99688 191.99688 0 0 1-191.99688 191.99688z m-132.029854 167.229283a364.28208 364.28208 0 0 0 264.059709 0 191.612886 191.612886 0 0 0 70.014862 111.230192 511.99168 511.99168 0 0 1-404.089434 0 191.612886 191.612886 0 0 0 70.014863-111.230192zM831.98648 703.98856a127.99792 127.99792 0 1 1-127.99792 127.99792 127.99792 127.99792 0 0 1 127.99792-127.99792z" fill="#1A8FD5" p-id="6677"></path></svg>