<?xml version="1.0" standalone="no"?><!DOCTYPE svg PUBLIC "-//W3C//DTD SVG 1.1//EN" "http://www.w3.org/Graphics/SVG/1.1/DTD/svg11.dtd"><svg t="1533117264063" class="icon" style="" viewBox="0 0 1024 1024" version="1.1" xmlns="http://www.w3.org/2000/svg" p-id="10981" xmlns:xlink="http://www.w3.org/1999/xlink" width="200" height="200"><defs><style type="text/css"></style></defs><path d="M925.0304 82.3808c-25.4464-16.6912-61.0816-31.488-105.9328-43.9296-89.1904-24.7808-207.36-38.4-332.6976-38.4s-243.5072 13.6704-332.6976 38.4c-44.9024 12.4416-80.5376 27.2384-105.9328 43.9296-31.6928 20.8384-47.7696 44.7488-47.7696 71.2192l0 614.4c0 26.4704 16.0768 50.432 47.7696 71.2192 25.4464 16.6912 61.0816 31.488 105.9328 43.9296 89.1904 24.7808 207.36 38.4 332.6976 38.4s243.5072-13.6704 332.6976-38.4512c44.9024-12.4416 80.5376-27.2384 105.9328-43.9296 31.6928-20.7872 47.7696-44.7488 47.7696-71.2192l0-614.4c0-26.4704-16.0768-50.432-47.7696-71.2192zM167.424 87.7568c84.8896-23.552 198.144-36.5568 318.976-36.5568s234.1376 13.0048 318.976 36.5568c91.904 25.5488 116.224 54.2208 116.224 65.8432s-24.2688 40.2944-116.224 65.8432c-84.8896 23.552-198.144 36.5568-318.976 36.5568s-234.1376-13.0048-318.976-36.5568c-91.904-25.5488-116.224-54.2208-116.224-65.8432s24.2688-40.2944 116.224-65.8432zM805.376 833.8432c-84.8896 23.552-198.144 36.5568-318.976 36.5568s-234.1376-13.0048-318.976-36.5568c-91.904-25.5488-116.224-54.2208-116.224-65.8432l0-131.3792c25.1904 15.8208 59.5968 29.8496 102.5024 41.7792 89.1904 24.7808 207.36 38.4 332.6976 38.4s243.5072-13.6704 332.6976-38.4512c42.9056-11.9296 77.3632-25.9584 102.5024-41.7792l0 131.3792c0 11.6224-24.2688 40.2944-116.224 65.8432zM805.376 629.0432c-84.8896 23.552-198.144 36.5568-318.976 36.5568s-234.1376-13.0048-318.976-36.5568c-91.904-25.5488-116.224-54.2208-116.224-65.8432l0-131.3792c25.1904 15.8208 59.5968 29.8496 102.5024 41.7792 89.1904 24.7808 207.36 38.4 332.6976 38.4s243.5072-13.6704 332.6976-38.4c42.9056-11.9296 77.3632-25.9584 102.5024-41.7792l0 131.3792c0 11.6224-24.2688 40.2944-116.224 65.8432zM805.376 424.2432c-84.8896 23.552-198.144 36.5568-318.976 36.5568s-234.1376-13.0048-318.976-36.5568c-91.904-25.5488-116.224-54.2208-116.224-65.8432l0-131.3792c25.1904 15.8208 59.5968 29.8496 102.5024 41.7792 89.1904 24.7808 207.36 38.4 332.6976 38.4s243.5072-13.6704 332.6976-38.4c42.9056-11.9296 77.3632-25.9584 102.5024-41.7792l0 131.3792c0 11.6224-24.2688 40.2944-116.224 65.8432z" p-id="10982"></path></svg>