<?xml version="1.0" standalone="no"?><!DOCTYPE svg PUBLIC "-//W3C//DTD SVG 1.1//EN" "http://www.w3.org/Graphics/SVG/1.1/DTD/svg11.dtd"><svg t="1533117247473" class="icon" style="" viewBox="0 0 1024 1024" version="1.1" xmlns="http://www.w3.org/2000/svg" p-id="10851" xmlns:xlink="http://www.w3.org/1999/xlink" width="200" height="200"><defs><style type="text/css"></style></defs><path d="M512 64C299.968 64 128 149.952 128 256l0 542.656 2.176 0C150.336 895.168 313.536 970.432 512 970.432c207.488 0 376.128-82.304 383.296-185.28L896 785.152 896 256C896 149.952 724.032 64 512 64zM512 128c195.328 0 320 75.84 320 128s-124.672 128-320 128S192 308.16 192 256 316.672 128 512 128zM512 906.432c-195.328 0-320-75.84-320-128L192 362.048C260.8 413.824 378.368 448 512 448s251.264-34.176 320-85.952l0 416.384C832 830.656 707.328 906.432 512 906.432z" p-id="10852"></path></svg>