<?xml version="1.0" standalone="no"?><!DOCTYPE svg PUBLIC "-//W3C//DTD SVG 1.1//EN" "http://www.w3.org/Graphics/SVG/1.1/DTD/svg11.dtd"><svg t="1537340249148" class="icon" style="" viewBox="0 0 1027 1024" version="1.1" xmlns="http://www.w3.org/2000/svg" p-id="1856" xmlns:xlink="http://www.w3.org/1999/xlink" width="200.5859375" height="200"><defs><style type="text/css"></style></defs><path d="M514.114393 0.319515C182.132358-12.283506-84.695751 350.347697 25.050748 663.418904 111.178692 984.031345 536.363793 1132.303474 803.170753 934.599752 1084.174693 757.580315 1100.110039 307.671539 832.334081 111.221522 742.767258 39.782296 628.673515 0.034523 514.114393 0.319515ZM333.139789 240.744476C393.464655 301.017328 453.789527 361.290174 514.114393 421.563032 574.439252 361.290174 634.764124 301.017328 695.089016 240.744476c30.162391 30.157246 60.324911 60.314505 90.487302 90.471752C725.251407 391.530733 664.92656 451.845245 604.601688 512.15975 664.92656 572.474255 725.251471 632.788754 785.576318 693.103266 755.413926 723.218878 725.251407 753.33449 695.089016 783.450103 634.764124 723.135623 574.439252 662.821079 514.114393 602.50658 453.789527 662.821079 393.464655 723.135623 333.139789 783.450103 302.977353 753.33449 272.814923 723.218878 242.652487 693.103266 302.977353 632.788754 363.302225 572.474255 423.627091 512.15975 363.302225 451.845245 302.977353 391.530733 242.652487 331.216228 272.814923 301.058981 302.977353 270.901722 333.139789 240.744476Z" p-id="1857"></path></svg>