<?xml version="1.0" standalone="no"?><!DOCTYPE svg PUBLIC "-//W3C//DTD SVG 1.1//EN" "http://www.w3.org/Graphics/SVG/1.1/DTD/svg11.dtd"><svg t="1533116802950" class="icon" style="" viewBox="0 0 1024 1024" version="1.1" xmlns="http://www.w3.org/2000/svg" p-id="3789" xmlns:xlink="http://www.w3.org/1999/xlink" width="200" height="200"><defs><style type="text/css"></style></defs><path d="M875.1 301.8l-278-280.5c-4.5-4.5-9.5-8.3-14.8-11.5-1.4-0.8-2.9-1.6-4.4-2.3-0.9-0.5-1.9-0.9-2.8-1.3-9.1-4-19-6.2-29.1-6.2H200c-39.8 0-72 32.2-72 72v880c0 39.8 32.2 72 72 72h624c39.8 0 72-32.2 72-72V352.5c0-19-7.5-37.2-20.9-50.7zM783.8 312H584V110.4L783.8 312zM824 952H200V72h312v240c0 39.8 32.2 72 72 72h240v568z" p-id="3790"></path></svg>