<?xml version="1.0" standalone="no"?><!DOCTYPE svg PUBLIC "-//W3C//DTD SVG 1.1//EN" "http://www.w3.org/Graphics/SVG/1.1/DTD/svg11.dtd"><svg t="1535526547391" class="icon" style="" viewBox="0 0 1024 1024" version="1.1" xmlns="http://www.w3.org/2000/svg" p-id="1464" xmlns:xlink="http://www.w3.org/1999/xlink" width="200" height="200"><defs><style type="text/css"></style></defs><path d="M316.928 255.84l97.521 0 0 146.288-97.521 0L316.928 255.84zM414.448 645.92l195.104 0 0 97.536L414.448 743.456 414.448 645.92zM316.928 743.456l97.521 0 0 97.52-97.521 0L316.928 743.456zM609.552 743.456l97.536 0 0 97.52-97.536 0L609.552 743.456zM828.992 207.072l0-97.504-97.536 0 0 97.52 97.536 0 0 97.504-195.04 0L633.952 109.568l97.504 0L731.456 12 97.504 12l0 97.568L97.504 1036l97.52 0 731.488 0 0-97.504 0-0.032L926.512 207.072 828.992 207.072zM828.992 938.464 195.024 938.464 195.024 109.568l341.328 0 0 292.56 97.601 0 195.023 0 0 536.336L828.992 938.464z" p-id="1465"></path></svg>