<?xml version="1.0" standalone="no"?><!DOCTYPE svg PUBLIC "-//W3C//DTD SVG 1.1//EN" "http://www.w3.org/Graphics/SVG/1.1/DTD/svg11.dtd"><svg t="1533116711227" class="icon" style="" viewBox="0 0 1024 1024" version="1.1" xmlns="http://www.w3.org/2000/svg" p-id="3269" xmlns:xlink="http://www.w3.org/1999/xlink" width="200" height="200"><defs><style type="text/css"></style></defs><path d="M922 377.7h-57.3v-17.6c0-27-21.3-49-47.4-49H645c-7.2-13.8-18-23.8-32.8-23.8-251.2 0-476.9-217.6-476.9-217.6C128 65.8 120.4 64 113 64c-24.7 0-47.2 19.8-47.2 47.2v801.1c0 27.6 22.6 47.2 47.2 47.2 8 0 16.3-2.1 24-6.7 0 0 208.5-260.4 478.1-260.4 13.8 0 23.7-9.3 30.3-22.2h4.1c1.4 60.3-12.7 124.5-25.8 170.8-7.6 26.9 3 55.2 26.4 70.5 10.6 6.9 22.7 10.4 34.7 10.4 14.4 0 28.7-5 40.5-14.7 69.2-57.5 95.1-123.6 104.7-168.9 6-28.3 6.5-52.2 5.8-68 3.6-4.6 7-9.6 10.3-14.6 18.7-28.7 18.7-39.8 18.7-45.1V588H922c19.9 0 36-16.1 36-36V413.7c0-19.9-16.1-36-36-36zM584.2 621.4c-61.3 3.9-123.6 19.1-185.7 45.4-56.3 23.9-112.5 57-167.1 98.4-37.6 28.5-69.2 57-93.7 81V166.6c26.4 21 61.8 47.1 103.8 73.1 55.2 34.2 110.9 61.6 165.6 81.3 60.2 21.7 119.4 34.3 176.4 37.5v1.7c0 2.3 0.2 4.5 0.6 6.6v253.5c0.1 0.4 0.1 0.7 0.1 1.1z m208.5-16.8c-3.1 6.1-9.6 16.1-13.5 21.1-3.2 2-6.1 4.5-8.5 7.4-6.8 8.2-9.7 19-7.8 29.5 0 0.2 4.1 25.8-3.3 60.8-8.6 40.8-28.4 77.2-58.9 108.6 14.5-58.5 26.7-133.7 18.1-202.3-2.3-18-17.6-31.5-35.7-31.5h-25.6v-29.9c0-3.3-0.5-6.5-1.3-9.5V383.1h136.5v221.5zM886 516h-21.3v-66.3H886V516z" p-id="3270"></path></svg>