<?xml version="1.0" standalone="no"?><!DOCTYPE svg PUBLIC "-//W3C//DTD SVG 1.1//EN" "http://www.w3.org/Graphics/SVG/1.1/DTD/svg11.dtd"><svg t="1536594611562" class="icon" style="" viewBox="0 0 1024 1024" version="1.1" xmlns="http://www.w3.org/2000/svg" p-id="7255" xmlns:xlink="http://www.w3.org/1999/xlink" width="200" height="200"><defs><style type="text/css"></style></defs><path d="M242.099 698.814h540.067v53.451h-540.067v-53.451zM242.099 512h540.067v53.451h-540.067v-53.451z" p-id="7256"></path><path d="M622.342 32h-423.638c-65.623 0-118.809 50.805-118.809 113.253v731.643c0 62.448 53.186 115.104 118.809 115.104h625.799c65.623 0 119.603-52.658 119.603-115.104v-538.214l-321.764-306.682zM880.071 351.912h-173.054c-47.1 0-87.056-41.543-87.056-90.496v-154.532l260.11 245.028zM824.502 938.814h-625.799c-35.722 0-64.829-28.842-64.829-61.654v-731.907c0-33.076 29.107-59.801 64.829-59.801h367.277v176.229c0 79.383 63.242 143.947 141.037 143.947h183.109v471.533c0 32.812-29.901 61.654-65.623 61.654z" p-id="7257"></path></svg>