<?xml version="1.0" standalone="no"?><!DOCTYPE svg PUBLIC "-//W3C//DTD SVG 1.1//EN" "http://www.w3.org/Graphics/SVG/1.1/DTD/svg11.dtd"><svg t="1533438273817" class="icon" style="" viewBox="0 0 1024 1024" version="1.1" xmlns="http://www.w3.org/2000/svg" p-id="2774" xmlns:xlink="http://www.w3.org/1999/xlink" width="200" height="200"><defs><style type="text/css"></style></defs><path d="M710.259484 1023.203556H91.535929c-50.574222 0-91.477333-40.391111-91.477333-90.225778v-149.560889c0-9.500444 4.835556-16.611556 12.060444-23.722667a23.267556 23.267556 0 0 1 24.064-4.778666c14.449778 4.778667 24.120889 4.778667 36.181333 4.778666 74.524444 0 134.712889-59.335111 134.712889-132.949333 0-73.614222-60.245333-132.949333-134.826666-132.949333-9.614222 0-21.617778 2.446222-36.124445 4.778666a28.330667 28.330667 0 0 1-24.064-4.835555A29.070222 29.070222 0 0 1 0.001707 470.129778V322.844444C0.001707 273.066667 40.961707 232.675556 91.47904 232.675556h120.376889c-2.389333-14.222222-2.389333-28.444444-2.389333-42.666667C209.466596 85.390222 296.165262 0 402.092373 0s192.625778 85.447111 192.625778 189.895111c0 14.222222-2.446222 28.501333-4.835555 42.780445h120.376888c50.574222 0 91.477333 40.391111 91.477334 90.168888V439.182222c9.671111-2.389333 19.285333-2.389333 28.899555-2.389333 105.927111 0 192.568889 85.504 192.568889 190.008889 0 104.391111-86.641778 189.895111-192.568889 189.895111-9.671111 0-19.285333 0-28.899555-2.446222v116.394666c2.389333 52.224-38.570667 92.558222-91.477334 92.558223z m-652.458666-204.231112V932.977778c0 19.000889 14.506667 33.28 33.735111 33.28h618.666667c19.228444 0 33.678222-14.279111 33.678222-33.28v-154.339556c0-9.443556 4.835556-18.944 12.060444-23.722666a26.168889 26.168889 0 0 1 26.510222-2.389334c16.839111 4.835556 31.288889 9.500444 45.738667 9.500445 74.638222 0 134.826667-59.335111 134.826667-132.949334 0-73.500444-60.302222-132.892444-134.826667-132.892444-14.449778 0-31.288889 2.389333-45.795555 9.500444-9.671111 2.389333-19.285333 2.389333-26.510223-2.446222a29.070222 29.070222 0 0 1-12.060444-23.722667V322.901333a32.711111 32.711111 0 0 0-33.621333-33.28H548.922596a26.510222 26.510222 0 0 1-24.064-14.222222 39.139556 39.139556 0 0 1-2.446223-28.444444c9.671111-19.000889 14.449778-38.001778 14.449778-57.059556 0-73.557333-60.131556-132.892444-134.826667-132.892444-74.638222 0-134.769778 59.335111-134.769777 132.892444 0 19.000889 4.835556 38.001778 14.449777 57.002667a24.917333 24.917333 0 0 1-2.389333 28.444444 26.510222 26.510222 0 0 1-24.120889 14.222222H91.47904a32.711111 32.711111 0 0 0-33.735111 33.28V436.906667h14.506667c105.927111 0 192.625778 85.447111 192.625777 189.895111S178.063929 816.696889 72.250596 816.696889a30.549333 30.549333 0 0 1-14.506667 2.389333l0.056889-0.056889z" p-id="2775"></path></svg>