<?xml version="1.0" standalone="no"?><!DOCTYPE svg PUBLIC "-//W3C//DTD SVG 1.1//EN" "http://www.w3.org/Graphics/SVG/1.1/DTD/svg11.dtd"><svg t="1534947657646" class="icon" style="" viewBox="0 0 1077 1024" version="1.1" xmlns="http://www.w3.org/2000/svg" p-id="2578" xmlns:xlink="http://www.w3.org/1999/xlink" width="210.3515625" height="200"><defs><style type="text/css"></style></defs><path d="M72.165592 293.995789H236.059486c54.649263 0 79.117474-31.851789 34.169263-80.78821-21.396211-22.474105-34.169263-50.984421-34.169263-81.92C236.059486 58.745263 305.907065 0 391.923065 0s155.863579 58.799158 155.863579 131.233684c0 30.989474-12.773053 59.499789-34.169263 81.92v0.053895c-44.948211 48.936421-20.48 80.842105 34.169263 80.842105h163.94779c39.828211 0 72.165053 32.336842 72.165052 72.111158v132.688842c0 54.703158 31.851789 79.171368 80.788211 34.223158 22.474105-21.396211 50.984421-34.223158 81.973895-34.223158 72.434526 0 131.233684 69.847579 131.233684 155.863579 0 86.016-58.799158 155.863579-131.233684 155.863579-30.989474 0-59.499789-12.826947-81.92-34.169263h-0.053895c-48.936421-45.002105-80.842105-20.533895-80.842105 34.169263v132.688842c0 39.828211-32.282947 72.165053-72.111158 72.165053H391.923065h155.863579c-54.703158 0-79.117474-31.905684-34.169263-80.842105 21.396211-22.474105 34.169263-50.930526 34.169263-81.92 0-72.434526-69.847579-131.287579-155.863579-131.287579-86.016 0-155.809684 58.853053-155.809684 131.233684 0 31.043368 12.773053 59.499789 34.169263 81.973895 44.948211 48.936421 20.48 80.842105-34.169263 80.842105h77.93179-241.879579A72.218947 72.218947 0 0 1 0.000539 943.265684V366.160842c0-39.828211 32.336842-72.165053 72.165053-72.165053z" p-id="2579"></path></svg>