<?xml version="1.0" encoding="UTF-8"?>
<svg width="69px" height="69px" viewBox="0 0 69 69" version="1.1" xmlns="http://www.w3.org/2000/svg" xmlns:xlink="http://www.w3.org/1999/xlink">
    <!-- Generator: Sketch 43.2 (39069) - http://www.bohemiancoding.com/sketch -->
    <title>Slice 5</title>
    <desc>Created with Sketch.</desc>
    <defs>
        <linearGradient x1="50%" y1="0%" x2="50%" y2="100%" id="linearGradient-1">
            <stop stop-color="#40C1C5" offset="0%"></stop>
            <stop stop-color="#79D8DD" offset="100%"></stop>
        </linearGradient>
        <linearGradient x1="50%" y1="0%" x2="50%" y2="100%" id="linearGradient-2">
            <stop stop-color="#A46E46" offset="0%"></stop>
            <stop stop-color="#CA8F6B" offset="100%"></stop>
        </linearGradient>
        <linearGradient x1="50%" y1="0%" x2="50%" y2="100%" id="linearGradient-3">
            <stop stop-color="#F08036" offset="0%"></stop>
            <stop stop-color="#FAA881" offset="100%"></stop>
        </linearGradient>
        <linearGradient x1="50%" y1="0%" x2="50%" y2="100%" id="linearGradient-4">
            <stop stop-color="#FBC233" offset="0%"></stop>
            <stop stop-color="#FEDB67" offset="100%"></stop>
        </linearGradient>
    </defs>
    <g id="Page-1" stroke="none" stroke-width="1" fill="none" fill-rule="evenodd">
        <g id="Group-2" transform="translate(-14.000000, -13.000000)">
            <g id="Group" transform="translate(48.102473, 48.029421) rotate(45.000000) translate(-48.102473, -48.029421) translate(14.602473, 14.529421)">
                <path d="M45.1476244,62.1282949 C50.3866041,57.0165986 58.5174683,49.3176633 58.5174683,41.9171892 C58.5174683,34.516715 52.5315853,28.5174454 45.1476244,28.5174454 C37.7636635,28.5174454 31.7777805,34.516715 31.7777805,41.9171892 C31.7777805,49.3176633 39.987305,57.0165986 45.1476244,62.1282949 Z" id="Oval" fill="url(#linearGradient-1)" transform="translate(45.147624, 45.322870) scale(1, -1) rotate(45.000000) translate(-45.147624, -45.322870) "></path>
                <path d="M21.2145111,61.9780017 C26.4068288,56.9118337 34.465274,49.2814704 34.465274,41.94691 C34.465274,34.6123496 28.5327053,28.6665136 21.2145111,28.6665136 C13.8963168,28.6665136 7.96374823,34.6123496 7.96374823,41.94691 C7.96374823,49.2814704 16.1001531,56.9118337 21.2145111,61.9780017 Z" id="Oval" fill="url(#linearGradient-2)" transform="translate(21.214511, 45.322258) scale(-1, -1) rotate(45.000000) translate(-21.214511, -45.322258) "></path>
                <path d="M45.0753284,37.9046177 C50.2676461,32.8384497 58.3260913,25.2080864 58.3260913,17.873526 C58.3260913,10.5389656 52.3935227,4.59312955 45.0753284,4.59312955 C37.7571342,4.59312955 31.8245656,10.5389656 31.8245656,17.873526 C31.8245656,25.2080864 39.9609704,32.8384497 45.0753284,37.9046177 Z" id="Oval" fill="url(#linearGradient-3)" transform="translate(45.075328, 21.248874) rotate(45.000000) translate(-45.075328, -21.248874) "></path>
                <path d="M21.16241,37.9985243 C26.3547277,32.9323563 34.4131728,25.301993 34.4131728,17.9674326 C34.4131728,10.6328721 28.4806042,4.68703613 21.16241,4.68703613 C13.8442157,4.68703613 7.91164713,10.6328721 7.91164713,17.9674326 C7.91164713,25.301993 16.048052,32.9323563 21.16241,37.9985243 Z" id="Oval" fill="url(#linearGradient-4)" transform="translate(21.162410, 21.342780) scale(-1, 1) rotate(45.000000) translate(-21.162410, -21.342780) "></path>
            </g>
        </g>
    </g>
</svg>