<?xml version="1.0" standalone="no"?><!DOCTYPE svg PUBLIC "-//W3C//DTD SVG 1.1//EN" "http://www.w3.org/Graphics/SVG/1.1/DTD/svg11.dtd"><svg t="1536594552487" class="icon" style="" viewBox="0 0 1024 1024" version="1.1" xmlns="http://www.w3.org/2000/svg" p-id="5799" xmlns:xlink="http://www.w3.org/1999/xlink" width="200" height="200"><defs><style type="text/css"></style></defs><path d="M919.1424 613.4784c-5.632-9.728-16.0768-14.848-26.5216-14.2336L711.68 599.2448c-5.4272 0-10.5472 1.536-14.848 4.096-4.8128 2.4576-9.0112 6.2464-11.9808 11.264l-90.7264 157.184c-4.1984 7.168-4.8128 15.4624-2.56 22.8352 0.6144 2.1504 1.536 4.4032 2.7648 6.4512L681.984 952.7296c3.3792 12.0832 14.4384 20.8896 27.5456 20.8896l181.1456 0c11.1616 1.4336 22.528-3.7888 28.4672-14.0288l89.7024-155.4432c2.1504-3.6864 3.2768-7.5776 3.6864-11.4688 2.048-7.168 1.2288-15.0528-2.7648-22.016L919.1424 613.4784zM866.9184 899.584 736.256 899.584l-65.1264-112.64 64.9216-112.3328 130.7648 0 65.024 112.64L866.9184 899.584z" p-id="5800"></path><path d="M683.3152 404.3776c3.8912 11.264 14.5408 19.2512 27.0336 19.2512l182.6816 0c1.024 0 2.048-0.1024 2.9696-0.2048 9.4208-0.4096 18.432-5.5296 23.552-14.2336l89.1904-154.7264c1.9456-3.3792 3.1744-6.9632 3.584-10.6496 2.3552-7.4752 1.7408-15.7696-2.4576-23.1424L919.7568 64.4096c-5.7344-9.9328-16.4864-15.1552-27.2384-14.2336L713.0112 50.176c-5.5296 0-10.752 1.6384-15.1552 4.4032-4.9152 2.4576-9.216 6.2464-12.1856 11.3664l-90.2144 156.3648c-2.3552 4.1984-3.584 8.704-3.7888 13.1072-0.4096 5.5296 0.8192 11.1616 3.7888 16.384L683.3152 404.3776zM737.3824 124.2112l131.4816 0 64.9216 112.2304-65.2288 112.64L737.1776 349.0816l-65.024-112.2304L737.3824 124.2112z" p-id="5801"></path><path d="M611.1232 573.0304l0-118.1696c-19.5584 0.1024-39.424-4.7104-57.5488-15.2576-54.6816-31.5392-73.216-101.6832-41.3696-156.7744l-102.2976-58.9824c-9.728 17.1008-23.8592 31.8464-41.984 42.2912-54.5792 31.5392-124.6208 12.5952-156.3648-42.2912l-102.2976 59.0848c9.8304 16.896 15.5648 36.4544 15.5648 57.4464 0 62.976-51.3024 114.0736-114.5856 114.2784l0 118.1696c19.456-0.1024 39.2192 4.8128 57.2416 15.2576 54.4768 31.4368 73.1136 101.2736 41.6768 156.16l102.2976 59.0848c9.6256-16.896 23.7568-31.4368 41.7792-41.7792 54.4768-31.5392 124.3136-12.6976 156.16 42.0864l102.2976-59.0848c-9.8304-16.7936-15.36-36.352-15.36-57.1392C496.2304 624.3328 547.7376 573.1328 611.1232 573.0304zM432.64 584.4992c-38.8096 67.1744-124.7232 90.112-192 51.3024-67.2768-38.8096-90.3168-124.7232-51.6096-191.8976 38.8096-67.1744 124.7232-90.112 192-51.3024C448.3072 431.5136 471.3472 517.4272 432.64 584.4992z" p-id="5802"></path></svg>