<?xml version="1.0" standalone="no"?><!DOCTYPE svg PUBLIC "-//W3C//DTD SVG 1.1//EN" "http://www.w3.org/Graphics/SVG/1.1/DTD/svg11.dtd"><svg t="1536592937797" class="icon" style="" viewBox="0 0 1119 1024" version="1.1" xmlns="http://www.w3.org/2000/svg" p-id="4553" xmlns:xlink="http://www.w3.org/1999/xlink" width="218.5546875" height="200"><defs><style type="text/css"></style></defs><path d="M715.270781 922.404684a367.814157 367.814157 0 0 1-160.808491 37.220625c-54.468426 0-106.083592-12.118343-152.697536-33.309414a239.385367 239.385367 0 0 1-41.260073 51.198397 431.579725 431.579725 0 0 0 193.957609 46.229235c72.453586 0 140.67537-18.049278 200.818259-49.531323a239.481544 239.481544 0 0 1-40.009768-51.80752M334.761216 291.257005a237.974766 237.974766 0 0 1-17.568392-66.009705 434.400927 434.400927 0 0 0-196.842929 351.848721 235.955042 235.955042 0 0 1 64.727341-12.182462 370.026236 370.026236 0 0 1 149.68398-273.656554M923.783225 564.368555a239.096835 239.096835 0 0 1 64.631164 9.361259 434.400927 434.400927 0 0 0-196.682634-348.482514 236.115338 236.115338 0 0 1-17.60045 66.009705 369.737704 369.737704 0 0 1 149.65192 273.11155M554.46229 393.814095c108.584202 0 196.939106-88.322845 196.939106-196.907048S663.046492 0 554.46229 0s-196.907047 88.322845-196.907048 196.907047 88.322845 196.907047 196.907048 196.907048m-132.78883-196.907048A132.949125 132.949125 0 0 1 554.46229 64.118218c73.223005 0 132.820889 59.565824 132.820888 132.788829s-59.565824 132.788829-132.820888 132.78883a132.949125 132.949125 0 0 1-132.78883-132.78883M922.468802 606.558342a197.131461 197.131461 0 0 0-196.907048 196.907047c0 108.616261 88.322845 196.939106 196.907048 196.939107s196.907047-88.322845 196.907047-196.939107a197.131461 197.131461 0 0 0-196.907047-196.907047m0 329.695877a132.949125 132.949125 0 0 1-132.78883-132.820889c0-73.190946 59.533765-132.788829 132.78883-132.788829s132.788829 59.565824 132.788829 132.788829a132.917066 132.917066 0 0 1-132.788829 132.820889M393.814095 803.465389c0-108.584202-88.322845-196.907047-196.907048-196.907047S0 694.881187 0 803.465389c0 108.616261 88.322845 196.939106 196.907047 196.939107s196.907047-88.354904 196.907048-196.939107m-196.907048 132.78883A132.917066 132.917066 0 0 1 64.118218 803.465389c0-73.190946 59.565824-132.788829 132.788829-132.788829s132.788829 59.565824 132.78883 132.788829a132.949125 132.949125 0 0 1-132.78883 132.78883" fill="#727171" p-id="4554"></path></svg>