<?xml version="1.0" standalone="no"?><!DOCTYPE svg PUBLIC "-//W3C//DTD SVG 1.1//EN" "http://www.w3.org/Graphics/SVG/1.1/DTD/svg11.dtd"><svg t="1533116755386" class="icon" style="" viewBox="0 0 1024 1024" version="1.1" xmlns="http://www.w3.org/2000/svg" p-id="3399" xmlns:xlink="http://www.w3.org/1999/xlink" width="200" height="200"><defs><style type="text/css"></style></defs><path d="M814 663.1c-51.6 0-97.2 26.6-123.7 66.8L454 562.3c3.9-15.5 6-31.6 6-48.3 0-26.6-5.3-52-14.9-75.2l257.3-129.6c27.2 31.2 67.1 50.9 111.6 50.9 81.6 0 148-66.4 148-148s-66.4-148-148-148-148 66.4-148 148c0 11.3 1.3 22.3 3.7 32.9L405.8 378c-36.1-38.2-87.2-62-143.8-62-109.2 0-198 88.8-198 198s88.8 198 198 198c66.4 0 125.3-32.9 161.3-83.2l243.1 172.4c-0.2 3.3-0.3 6.6-0.3 10 0 81.6 66.4 148 148 148s148-66.4 148-148S895.6 663.1 814 663.1z m0-527c41.9 0 76 34.1 76 76s-34.1 76-76 76-76-34.1-76-76 34.1-76 76-76zM262 640c-69.5 0-126-56.5-126-126s56.5-126 126-126 126 56.5 126 126-56.5 126-126 126z m552 247.1c-41.9 0-76-34.1-76-76s34.1-76 76-76 76 34.1 76 76-34.1 76-76 76z" p-id="3400"></path></svg>