<?xml version="1.0" standalone="no"?><!DOCTYPE svg PUBLIC "-//W3C//DTD SVG 1.1//EN" "http://www.w3.org/Graphics/SVG/1.1/DTD/svg11.dtd"><svg t="1536430992383" class="icon" style="" viewBox="0 0 1024 1024" version="1.1" xmlns="http://www.w3.org/2000/svg" p-id="10800" xmlns:xlink="http://www.w3.org/1999/xlink" width="200" height="200"><defs><style type="text/css"></style></defs><path d="M810.666667 85.333333H213.333333C140.8 85.333333 85.333333 140.8 85.333333 213.333333v597.333334c0 72.533333 55.466667 128 128 128h597.333334c72.533333 0 128-55.466667 128-128V213.333333c0-72.533333-55.466667-128-128-128zM213.333333 170.666667h597.333334c25.6 0 42.666667 17.066667 42.666666 42.666666v128H170.666667V213.333333c0-25.6 17.066667-42.666667 42.666666-42.666666zM170.666667 810.666667v-384h170.666666v426.666666H213.333333c-25.6 0-42.666667-17.066667-42.666666-42.666666z m640 42.666666h-384V426.666667h426.666666v384c0 25.6-17.066667 42.666667-42.666666 42.666666z" fill="" p-id="10801"></path></svg>