<?xml version="1.0" standalone="no"?><!DOCTYPE svg PUBLIC "-//W3C//DTD SVG 1.1//EN" "http://www.w3.org/Graphics/SVG/1.1/DTD/svg11.dtd"><svg t="1533115774796" class="icon" style="" viewBox="0 0 1024 1024" version="1.1" xmlns="http://www.w3.org/2000/svg" p-id="6673" xmlns:xlink="http://www.w3.org/1999/xlink" width="200" height="200"><defs><style type="text/css"></style></defs><path d="M928 444H820V330.4c0-17.7-14.3-32-32-32H473L355.7 186.2c-1.5-1.4-3.5-2.2-5.5-2.2H96c-17.7 0-32 14.3-32 32v592c0 17.7 14.3 32 32 32h698c13 0 24.8-7.9 29.7-20l134-332c1.5-3.8 2.3-7.9 2.3-12 0-17.7-14.3-32-32-32zM136 256h188.5l119.6 114.4H748V444H238c-13 0-24.8 7.9-29.7 20L136 643.2V256z m635.3 512H159l103.3-256h612.4L771.3 768z" p-id="6674"></path></svg>